<svg xmlns="http://www.w3.org/2000/svg" width="512" height="512" fill="none" viewBox="0 0 512 512"><rect width="428" height="342" x="42" y="85" fill="#50E6FF" rx="25"/><path fill="url(#paint0_linear)" d="M42 110C42 96.1929 53.1929 85 67 85H445C458.807 85 470 96.1929 470 110V160H42V110Z"/><circle cx="133.5" cy="122.5" r="16.5" fill="url(#paint1_linear)"/><circle cx="133.5" cy="122.5" r="16.5" fill="url(#paint2_linear)"/><circle cx="80.5" cy="122.5" r="16.5" fill="url(#paint3_linear)"/><circle cx="186.5" cy="122.5" r="16.5" fill="url(#paint4_linear)"/><circle cx="186.5" cy="122.5" r="16.5" fill="url(#paint5_linear)"/><rect width="256" height="203" x="128" y="192" fill="url(#paint6_linear)" rx="13"/><path fill="url(#paint7_linear)" d="M128 205C128 197.82 133.82 192 141 192H371C378.18 192 384 197.82 384 205V234H128V205Z"/><defs><linearGradient id="paint0_linear" x1="41" x2="469" y1="126.5" y2="126.5" gradientUnits="userSpaceOnUse"><stop stop-color="#0077D2"/><stop offset="1" stop-color="#0B59A2"/></linearGradient><linearGradient id="paint1_linear" x1="117" x2="150" y1="123" y2="123" gradientUnits="userSpaceOnUse"><stop stop-color="#FFD3FC"/><stop offset="1" stop-color="#4EC1F3"/></linearGradient><linearGradient id="paint2_linear" x1="121.5" x2="146" y1="111" y2="133.5" gradientUnits="userSpaceOnUse"><stop stop-color="#6BD3FC"/><stop offset="1" stop-color="#4EC1F3"/></linearGradient><linearGradient id="paint3_linear" x1="68.5" x2="93" y1="111" y2="133.5" gradientUnits="userSpaceOnUse"><stop stop-color="#6BD3FC"/><stop offset="1" stop-color="#4EC1F3"/></linearGradient><linearGradient id="paint4_linear" x1="170" x2="203" y1="123" y2="123" gradientUnits="userSpaceOnUse"><stop stop-color="#6BD3FC"/><stop offset="1" stop-color="#4EC1F3"/></linearGradient><linearGradient id="paint5_linear" x1="174.5" x2="199" y1="111" y2="133.5" gradientUnits="userSpaceOnUse"><stop stop-color="#6BD3FC"/><stop offset="1" stop-color="#4EC1F3"/></linearGradient><linearGradient id="paint6_linear" x1="128" x2="379.5" y1="235" y2="390" gradientUnits="userSpaceOnUse"><stop stop-color="#2AA4F4"/><stop offset="1" stop-color="#007AD9"/></linearGradient><linearGradient id="paint7_linear" x1="128" x2="384" y1="213" y2="213" gradientUnits="userSpaceOnUse"><stop stop-color="#0077D2"/><stop offset="1" stop-color="#0B59A3"/></linearGradient></defs></svg>